<?xml version="1.0" encoding="utf-8"?>
<!-- Generator: Adobe Illustrator 23.1.0, SVG Export Plug-In . SVG Version: 6.00 Build 0)  -->
<svg version="1.1" id="Layer_1" xmlns="http://www.w3.org/2000/svg" xmlns:xlink="http://www.w3.org/1999/xlink" x="0px" y="0px"
	 viewBox="0 0 500 500" style="enable-background:new 0 0 500 500;" xml:space="preserve">
<g>
	<path d="M337.5,267.6c4.9,0,8.5,0,12.1,0c31-0.2,61.9-0.5,92.9-0.4c15.3,0,23.9,7.7,21.6,19.7c-0.9,4.7-4.4,9.5-7.9,13.1
		c-51.7,52-103.7,103.8-155.6,155.6c-12.7,12.7-25.3,25.5-38.1,38.1c-9.9,9.8-18,10-28,0c-58.8-58.6-117.4-117.3-176.1-175.9
		c-6.8-6.8-13.7-13.4-20.3-20.4c-10.8-11.6-6.2-26.1,9.3-29.3c5.1-1,10.4-0.9,15.7-0.9c29.1,0,58.2,0,87.3,0.5
		c7.3,0.1,9.5-1.9,9.5-9.3c-0.3-77.1-0.2-154.2-0.2-231.3c0-21.1,4.9-26,26.3-26c42.7,0,85.5-0.1,128.2,0c18.1,0,23.4,5.3,23.5,24.2
		c0.1,50.2-0.1,100.3-0.2,150.5C337.4,205.9,337.5,235.9,337.5,267.6z"/>
</g>
</svg>
