<?xml version="1.0" encoding="utf-8"?>
<!-- Generator: Adobe Illustrator 23.1.0, SVG Export Plug-In . SVG Version: 6.00 Build 0)  -->
<svg version="1.1" id="Layer_1" xmlns="http://www.w3.org/2000/svg" xmlns:xlink="http://www.w3.org/1999/xlink" x="0px" y="0px"
	 viewBox="0 0 64.2 11.1" style="enable-background:new 0 0 64.2 11.1;" xml:space="preserve">
<style type="text/css">
	.st0{fill:#FFFFFF;}
	.st1{fill:none;}
</style>
<g>
	<g>
		<path d="M55.8,6.7c-0.1,0-0.2,0-0.3,0c-0.5-0.1-0.8-0.5-0.8-1c0-1.3,0-2.7,0-4c0-0.6,0.4-1,1-1c2,0,4,0,6,0c0.6,0,1,0.4,1,1
			c0,1.3,0,2.7,0,4c0,0.6-0.4,1-1,1c-1.1,0-2.1,0-3.2,0c-0.1,0-0.1,0-0.2,0c-0.7,0.5-1.4,1-2.1,1.5c-0.1,0.1-0.2,0.1-0.3,0
			c-0.1-0.1-0.2-0.2-0.1-0.3C55.8,7.5,55.8,7.1,55.8,6.7L55.8,6.7z M56.4,7.4L56.4,7.4C57,7,57.6,6.5,58.2,6.1C58.3,6,58.4,6,58.4,6
			c1.1,0,2.2,0,3.3,0c0.1,0,0.1,0,0.2,0c0.2-0.1,0.3-0.2,0.3-0.5c0-1.3,0-2.6,0-4C62.2,1.2,62,1,61.7,1c-2,0-3.9,0-5.9,0
			c-0.3,0-0.5,0.2-0.5,0.5c0,1.3,0,2.6,0,4l0,0c0,0.4,0.2,0.6,0.4,0.6c0.1,0,0.2,0,0.3,0c0.2,0,0.3,0.1,0.3,0.3
			C56.4,6.7,56.4,7,56.4,7.4L56.4,7.4z"/>
		<path d="M62.6,8.4c0-0.3,0-0.7,0-1c0-0.2,0.1-0.3,0.3-0.3c0.1,0,0.2,0,0.3,0c0.3,0,0.5-0.2,0.5-0.5c0-1.1,0-2.2,0-3.4
			c0-0.2,0-0.4,0-0.6c0-0.3-0.2-0.5-0.5-0.5c-0.2,0-0.3-0.1-0.3-0.3c0-0.2,0.1-0.3,0.3-0.3c0.5,0,1,0.4,1,1c0,1.4,0,2.7,0,4.1
			c0,0.5-0.4,1-1,1h-0.1v0.1c0,0.4,0,0.8,0,1.2c0,0.1,0,0.2-0.2,0.3c-0.1,0.1-0.2,0-0.3,0c-0.7-0.5-1.3-1-2-1.4
			c-0.1-0.1-0.2-0.1-0.2-0.1c-0.7,0-1.3,0-2,0c-0.2,0-0.3-0.1-0.3-0.2c0-0.2,0.1-0.3,0.2-0.3h0.1c0.7,0,1.4,0,2.2,0
			c0.1,0,0.2,0,0.3,0.1C61.4,7.5,62,7.9,62.6,8.4L62.6,8.4z"/>
	</g>
	<g>
		<path class="st0" d="M56.1,4.5c0-0.5,0-0.9,0-1.4c0.5,0,0.9,0,1.4,0c0,0.5,0,0.9,0,1.4C57,4.5,56.5,4.5,56.1,4.5z M56.6,3.6
			C56.6,3.7,56.6,3.7,56.6,3.6c0,0.1,0,0.1-0.1,0.1c0,0.1-0.1,0.2-0.1,0.3c0,0,0,0.1,0,0.1c0,0,0,0,0,0c0,0,0,0,0.1,0
			c0,0,0.1,0,0.2,0c0,0,0,0,0-0.1c0-0.1,0-0.2,0-0.3c0-0.1,0-0.1,0.1-0.2c0,0,0,0,0,0C56.7,3.8,56.6,3.7,56.6,3.6z M57,3.8
			C57,3.8,57,3.8,57,3.8C57,3.7,57,3.7,57,3.8c-0.1-0.2-0.2-0.3-0.3-0.3c-0.1,0-0.1-0.1-0.2-0.1c0,0,0,0,0,0c-0.1,0-0.1,0.1-0.2,0.1
			c0,0,0,0,0,0c0,0,0.1,0,0.1,0c0.1,0,0.2,0,0.2,0.1c0.1,0,0.1,0.1,0.1,0.2c0,0,0,0,0,0c0,0,0.1,0,0.1,0C56.9,3.8,57,3.8,57,3.8z
			 M56.7,4.1C56.7,4.1,56.7,4.1,56.7,4.1c0.1,0,0.1,0,0.1,0c0.1,0,0.2,0,0.3-0.1c0.1,0,0.1-0.1,0.2-0.1c0,0,0,0,0,0
			c0-0.1,0-0.1,0-0.2c0,0,0,0,0,0c0,0,0,0.1-0.1,0.1c-0.1,0.1-0.1,0.1-0.2,0.1c0,0-0.1,0-0.2,0c0,0,0,0,0,0c0,0,0,0.1,0,0.1
			C56.7,4,56.7,4.1,56.7,4.1z M57.1,3.7C57.1,3.7,57.1,3.7,57.1,3.7c0.1,0,0.1-0.1,0.1-0.2c0,0,0,0,0,0c0,0,0-0.1-0.1-0.1
			c-0.1-0.1-0.3-0.2-0.4-0.1c0,0-0.1,0-0.1,0c0,0,0,0,0,0c0,0,0,0,0,0c0,0,0.1,0,0.1,0c0.1,0,0.2,0.1,0.2,0.2
			C57,3.6,57,3.7,57.1,3.7z M56.5,3.6C56.5,3.6,56.5,3.6,56.5,3.6c-0.1,0-0.1,0-0.2,0c0,0,0,0,0,0c-0.1,0.1-0.1,0.2-0.1,0.3
			c0,0.1,0.1,0.2,0.1,0.3c0,0,0,0,0.1,0.1c0,0,0,0,0,0c0-0.1,0-0.2,0-0.3c0-0.1,0-0.2,0.1-0.2C56.5,3.7,56.5,3.7,56.5,3.6z
			 M56.7,4.2C56.7,4.2,56.7,4.2,56.7,4.2c0,0.1,0,0.1,0.1,0.2c0,0,0,0,0,0c0,0,0,0,0.1,0c0.1,0,0.1,0,0.2-0.1
			c0.1-0.1,0.1-0.1,0.2-0.2c0,0,0-0.1,0-0.1c0,0,0,0,0,0c0,0-0.1,0.1-0.1,0.1C57,4.1,56.9,4.1,56.7,4.2C56.7,4.2,56.7,4.2,56.7,4.2z
			"/>
		<path d="M56.6,3.6c0.1,0,0.1,0.1,0.2,0.2c0,0,0,0,0,0c0,0.1-0.1,0.1-0.1,0.2c0,0.1,0,0.2,0,0.3c0,0,0,0,0,0.1c-0.1,0-0.1,0-0.2,0
			c0,0,0,0-0.1,0c0,0,0,0,0,0c0,0,0-0.1,0-0.1c0-0.1,0-0.2,0.1-0.3C56.5,3.7,56.5,3.7,56.6,3.6C56.6,3.7,56.6,3.7,56.6,3.6z"/>
		<path d="M57,3.8c0,0-0.1,0-0.1,0c0,0-0.1,0-0.1,0c0,0,0,0,0,0c0-0.1-0.1-0.1-0.1-0.2c-0.1-0.1-0.1-0.1-0.2-0.1c0,0-0.1,0-0.1,0
			c0,0,0,0,0,0c0-0.1,0.1-0.1,0.2-0.1c0,0,0,0,0,0c0.1,0,0.1,0,0.2,0.1C56.8,3.5,56.9,3.6,57,3.8C57,3.7,57,3.7,57,3.8
			C57,3.8,57,3.8,57,3.8z"/>
		<path d="M56.7,4.1c0-0.1,0-0.1,0-0.2c0,0,0-0.1,0-0.1c0,0,0,0,0,0c0.1,0,0.1,0,0.2,0c0.1,0,0.2-0.1,0.2-0.1c0,0,0-0.1,0.1-0.1
			c0,0,0,0,0,0c0,0.1,0,0.1,0,0.2c0,0,0,0,0,0c0,0.1-0.1,0.1-0.2,0.1c-0.1,0-0.2,0.1-0.3,0.1C56.8,4.1,56.7,4.1,56.7,4.1
			C56.7,4.1,56.7,4.1,56.7,4.1z"/>
		<path d="M57.1,3.7c0-0.1-0.1-0.1-0.1-0.2c-0.1-0.1-0.1-0.1-0.2-0.2c0,0-0.1,0-0.1,0c0,0,0,0,0,0c0,0,0,0,0,0c0,0,0.1,0,0.1,0
			c0.2,0,0.3,0,0.4,0.1c0,0,0.1,0.1,0.1,0.1c0,0,0,0,0,0C57.2,3.6,57.1,3.7,57.1,3.7C57.1,3.7,57.1,3.7,57.1,3.7z"/>
		<path d="M56.5,3.6c0,0,0,0.1-0.1,0.1c0,0.1-0.1,0.2-0.1,0.2c0,0.1,0,0.2,0,0.3c0,0,0,0,0,0c0,0,0,0-0.1-0.1
			c-0.1-0.1-0.1-0.2-0.1-0.3c0-0.1,0-0.2,0.1-0.3c0,0,0,0,0,0C56.4,3.6,56.4,3.6,56.5,3.6C56.5,3.6,56.5,3.6,56.5,3.6z"/>
		<path d="M56.7,4.2C56.7,4.2,56.7,4.2,56.7,4.2c0.2,0,0.3,0,0.5-0.1c0,0,0.1-0.1,0.1-0.1c0,0,0,0,0,0c0,0,0,0.1,0,0.1
			c0,0.1-0.1,0.1-0.2,0.2c-0.1,0-0.1,0.1-0.2,0.1c0,0,0,0-0.1,0c0,0,0,0,0,0C56.7,4.3,56.7,4.2,56.7,4.2C56.7,4.2,56.7,4.2,56.7,4.2
			z"/>
	</g>
	<g>
		<path class="st0" d="M58.1,4.5c0-0.5,0-0.9,0-1.4c0.5,0,0.9,0,1.4,0c0,0.5,0,0.9,0,1.4C59,4.5,58.5,4.5,58.1,4.5z M58.6,3.6
			C58.6,3.7,58.6,3.7,58.6,3.6c0,0.1,0,0.1-0.1,0.1c0,0.1-0.1,0.2-0.1,0.3c0,0,0,0.1,0,0.1c0,0,0,0,0,0c0,0,0,0,0.1,0
			c0,0,0.1,0,0.2,0c0,0,0,0,0-0.1c0-0.1,0-0.2,0-0.3c0-0.1,0-0.1,0.1-0.2c0,0,0,0,0,0C58.7,3.8,58.6,3.7,58.6,3.6z M59,3.8
			C59,3.8,59,3.8,59,3.8C59,3.7,59,3.7,59,3.8c-0.1-0.2-0.2-0.3-0.3-0.3c-0.1,0-0.1-0.1-0.2-0.1c0,0,0,0,0,0c-0.1,0-0.1,0.1-0.2,0.1
			c0,0,0,0,0,0c0,0,0.1,0,0.1,0c0.1,0,0.2,0,0.2,0.1c0.1,0,0.1,0.1,0.1,0.2c0,0,0,0,0,0c0,0,0.1,0,0.1,0C58.9,3.8,59,3.8,59,3.8z
			 M58.7,4.1C58.7,4.1,58.7,4.1,58.7,4.1c0.1,0,0.1,0,0.1,0c0.1,0,0.2,0,0.3-0.1c0.1,0,0.1-0.1,0.2-0.1c0,0,0,0,0,0
			c0-0.1,0-0.1,0-0.2c0,0,0,0,0,0c0,0,0,0.1-0.1,0.1c-0.1,0.1-0.1,0.1-0.2,0.1c0,0-0.1,0-0.2,0c0,0,0,0,0,0c0,0,0,0.1,0,0.1
			C58.7,4,58.7,4.1,58.7,4.1z M59.1,3.7C59.1,3.7,59.1,3.7,59.1,3.7c0.1,0,0.1-0.1,0.1-0.2c0,0,0,0,0,0c0,0,0-0.1-0.1-0.1
			c-0.1-0.1-0.3-0.2-0.4-0.1c0,0-0.1,0-0.1,0c0,0,0,0,0,0c0,0,0,0,0,0c0,0,0.1,0,0.1,0c0.1,0,0.2,0.1,0.2,0.2
			C59,3.6,59,3.7,59.1,3.7z M58.5,3.6C58.5,3.6,58.5,3.6,58.5,3.6c-0.1,0-0.1,0-0.2,0c0,0,0,0,0,0c-0.1,0.1-0.1,0.2-0.1,0.3
			c0,0.1,0.1,0.2,0.1,0.3c0,0,0,0,0.1,0.1c0,0,0,0,0,0c0-0.1,0-0.2,0-0.3c0-0.1,0-0.2,0.1-0.2C58.5,3.7,58.5,3.7,58.5,3.6z
			 M58.7,4.2C58.7,4.2,58.7,4.2,58.7,4.2c0,0.1,0,0.1,0.1,0.2c0,0,0,0,0,0c0,0,0,0,0.1,0c0.1,0,0.1,0,0.2-0.1
			c0.1-0.1,0.1-0.1,0.2-0.2c0,0,0-0.1,0-0.1c0,0,0,0,0,0c0,0-0.1,0.1-0.1,0.1C59,4.1,58.9,4.1,58.7,4.2C58.7,4.2,58.7,4.2,58.7,4.2z
			"/>
		<path d="M58.6,3.6c0.1,0,0.1,0.1,0.2,0.2c0,0,0,0,0,0c0,0.1-0.1,0.1-0.1,0.2c0,0.1,0,0.2,0,0.3c0,0,0,0,0,0.1c-0.1,0-0.1,0-0.2,0
			c0,0,0,0-0.1,0c0,0,0,0,0,0c0,0,0-0.1,0-0.1c0-0.1,0-0.2,0.1-0.3C58.5,3.7,58.5,3.7,58.6,3.6C58.6,3.7,58.6,3.7,58.6,3.6z"/>
		<path d="M59,3.8c0,0-0.1,0-0.1,0c0,0-0.1,0-0.1,0c0,0,0,0,0,0c0-0.1-0.1-0.1-0.1-0.2c-0.1-0.1-0.1-0.1-0.2-0.1c0,0-0.1,0-0.1,0
			c0,0,0,0,0,0c0-0.1,0.1-0.1,0.2-0.1c0,0,0,0,0,0c0.1,0,0.1,0,0.2,0.1C58.8,3.5,58.9,3.6,59,3.8C59,3.7,59,3.7,59,3.8
			C59,3.8,59,3.8,59,3.8z"/>
		<path d="M58.7,4.1c0-0.1,0-0.1,0-0.2c0,0,0-0.1,0-0.1c0,0,0,0,0,0c0.1,0,0.1,0,0.2,0c0.1,0,0.2-0.1,0.2-0.1c0,0,0-0.1,0.1-0.1
			c0,0,0,0,0,0c0,0.1,0,0.1,0,0.2c0,0,0,0,0,0c0,0.1-0.1,0.1-0.2,0.1c-0.1,0-0.2,0.1-0.3,0.1C58.8,4.1,58.7,4.1,58.7,4.1
			C58.7,4.1,58.7,4.1,58.7,4.1z"/>
		<path d="M59.1,3.7c0-0.1-0.1-0.1-0.1-0.2c-0.1-0.1-0.1-0.1-0.2-0.2c0,0-0.1,0-0.1,0c0,0,0,0,0,0c0,0,0,0,0,0c0,0,0.1,0,0.1,0
			c0.2,0,0.3,0,0.4,0.1c0,0,0.1,0.1,0.1,0.1c0,0,0,0,0,0C59.2,3.6,59.1,3.7,59.1,3.7C59.1,3.7,59.1,3.7,59.1,3.7z"/>
		<path d="M58.5,3.6c0,0,0,0.1-0.1,0.1c0,0.1-0.1,0.2-0.1,0.2c0,0.1,0,0.2,0,0.3c0,0,0,0,0,0c0,0,0,0-0.1-0.1
			c-0.1-0.1-0.1-0.2-0.1-0.3c0-0.1,0-0.2,0.1-0.3c0,0,0,0,0,0C58.4,3.6,58.4,3.6,58.5,3.6C58.5,3.6,58.5,3.6,58.5,3.6z"/>
		<path d="M58.7,4.2C58.7,4.2,58.7,4.2,58.7,4.2c0.2,0,0.3,0,0.5-0.1c0,0,0.1-0.1,0.1-0.1c0,0,0,0,0,0c0,0,0,0.1,0,0.1
			c0,0.1-0.1,0.1-0.2,0.2c-0.1,0-0.1,0.1-0.2,0.1c0,0,0,0-0.1,0c0,0,0,0,0,0C58.7,4.3,58.7,4.2,58.7,4.2C58.7,4.2,58.7,4.2,58.7,4.2
			z"/>
	</g>
	<g>
		<path class="st0" d="M60.1,4.5c0-0.5,0-0.9,0-1.4c0.5,0,0.9,0,1.4,0c0,0.5,0,0.9,0,1.4C61,4.5,60.5,4.5,60.1,4.5z M60.6,3.6
			C60.6,3.7,60.6,3.7,60.6,3.6c0,0.1,0,0.1-0.1,0.1c0,0.1-0.1,0.2-0.1,0.3c0,0,0,0.1,0,0.1c0,0,0,0,0,0c0,0,0,0,0.1,0
			c0,0,0.1,0,0.2,0c0,0,0,0,0-0.1c0-0.1,0-0.2,0-0.3c0-0.1,0-0.1,0.1-0.2c0,0,0,0,0,0C60.7,3.8,60.6,3.7,60.6,3.6z M61,3.8
			C61,3.8,61,3.8,61,3.8C61,3.7,61,3.7,61,3.8c-0.1-0.2-0.2-0.3-0.3-0.3c-0.1,0-0.1-0.1-0.2-0.1c0,0,0,0,0,0c-0.1,0-0.1,0.1-0.2,0.1
			c0,0,0,0,0,0c0,0,0.1,0,0.1,0c0.1,0,0.2,0,0.2,0.1c0.1,0,0.1,0.1,0.1,0.2c0,0,0,0,0,0c0,0,0.1,0,0.1,0C60.9,3.8,61,3.8,61,3.8z
			 M60.7,4.1C60.7,4.1,60.7,4.1,60.7,4.1c0.1,0,0.1,0,0.1,0c0.1,0,0.2,0,0.3-0.1c0.1,0,0.1-0.1,0.2-0.1c0,0,0,0,0,0
			c0-0.1,0-0.1,0-0.2c0,0,0,0,0,0c0,0,0,0.1-0.1,0.1c-0.1,0.1-0.1,0.1-0.2,0.1c0,0-0.1,0-0.2,0c0,0,0,0,0,0c0,0,0,0.1,0,0.1
			C60.7,4,60.7,4.1,60.7,4.1z M61.1,3.7C61.1,3.7,61.1,3.7,61.1,3.7c0.1,0,0.1-0.1,0.1-0.2c0,0,0,0,0,0c0,0,0-0.1-0.1-0.1
			c-0.1-0.1-0.3-0.2-0.4-0.1c0,0-0.1,0-0.1,0c0,0,0,0,0,0c0,0,0,0,0,0c0,0,0.1,0,0.1,0c0.1,0,0.2,0.1,0.2,0.2
			C61,3.6,61,3.7,61.1,3.7z M60.5,3.6C60.5,3.6,60.5,3.6,60.5,3.6c-0.1,0-0.1,0-0.2,0c0,0,0,0,0,0c-0.1,0.1-0.1,0.2-0.1,0.3
			c0,0.1,0.1,0.2,0.1,0.3c0,0,0,0,0.1,0.1c0,0,0,0,0,0c0-0.1,0-0.2,0-0.3c0-0.1,0-0.2,0.1-0.2C60.5,3.7,60.5,3.7,60.5,3.6z
			 M60.7,4.2C60.7,4.2,60.7,4.2,60.7,4.2c0,0.1,0,0.1,0.1,0.2c0,0,0,0,0,0c0,0,0,0,0.1,0c0.1,0,0.1,0,0.2-0.1
			c0.1-0.1,0.1-0.1,0.2-0.2c0,0,0-0.1,0-0.1c0,0,0,0,0,0c0,0-0.1,0.1-0.1,0.1C61,4.1,60.9,4.1,60.7,4.2C60.7,4.2,60.7,4.2,60.7,4.2z
			"/>
		<path d="M60.6,3.6c0.1,0,0.1,0.1,0.2,0.2c0,0,0,0,0,0c0,0.1-0.1,0.1-0.1,0.2c0,0.1,0,0.2,0,0.3c0,0,0,0,0,0.1c-0.1,0-0.1,0-0.2,0
			c0,0,0,0-0.1,0c0,0,0,0,0,0c0,0,0-0.1,0-0.1c0-0.1,0-0.2,0.1-0.3C60.5,3.7,60.5,3.7,60.6,3.6C60.6,3.7,60.6,3.7,60.6,3.6z"/>
		<path d="M61,3.8c0,0-0.1,0-0.1,0c0,0-0.1,0-0.1,0c0,0,0,0,0,0c0-0.1-0.1-0.1-0.1-0.2c-0.1-0.1-0.1-0.1-0.2-0.1c0,0-0.1,0-0.1,0
			c0,0,0,0,0,0c0-0.1,0.1-0.1,0.2-0.1c0,0,0,0,0,0c0.1,0,0.1,0,0.2,0.1C60.8,3.5,60.9,3.6,61,3.8C61,3.7,61,3.7,61,3.8
			C61,3.8,61,3.8,61,3.8z"/>
		<path d="M60.7,4.1c0-0.1,0-0.1,0-0.2c0,0,0-0.1,0-0.1c0,0,0,0,0,0c0.1,0,0.1,0,0.2,0c0.1,0,0.2-0.1,0.2-0.1c0,0,0-0.1,0.1-0.1
			c0,0,0,0,0,0c0,0.1,0,0.1,0,0.2c0,0,0,0,0,0c0,0.1-0.1,0.1-0.2,0.1c-0.1,0-0.2,0.1-0.3,0.1C60.8,4.1,60.7,4.1,60.7,4.1
			C60.7,4.1,60.7,4.1,60.7,4.1z"/>
		<path d="M61.1,3.7c0-0.1-0.1-0.1-0.1-0.2c-0.1-0.1-0.1-0.1-0.2-0.2c0,0-0.1,0-0.1,0c0,0,0,0,0,0c0,0,0,0,0,0c0,0,0.1,0,0.1,0
			c0.2,0,0.3,0,0.4,0.1c0,0,0.1,0.1,0.1,0.1c0,0,0,0,0,0C61.2,3.6,61.1,3.7,61.1,3.7C61.1,3.7,61.1,3.7,61.1,3.7z"/>
		<path d="M60.5,3.6c0,0,0,0.1-0.1,0.1c0,0.1-0.1,0.2-0.1,0.2c0,0.1,0,0.2,0,0.3c0,0,0,0,0,0c0,0,0,0-0.1-0.1
			c-0.1-0.1-0.1-0.2-0.1-0.3c0-0.1,0-0.2,0.1-0.3c0,0,0,0,0,0C60.4,3.6,60.4,3.6,60.5,3.6C60.5,3.6,60.5,3.6,60.5,3.6z"/>
		<path d="M60.7,4.2C60.7,4.2,60.7,4.2,60.7,4.2c0.2,0,0.3,0,0.5-0.1c0,0,0.1-0.1,0.1-0.1c0,0,0,0,0,0c0,0,0,0.1,0,0.1
			c0,0.1-0.1,0.1-0.2,0.2c-0.1,0-0.1,0.1-0.2,0.1c0,0,0,0-0.1,0c0,0,0,0,0,0C60.7,4.3,60.7,4.2,60.7,4.2C60.7,4.2,60.7,4.2,60.7,4.2
			z"/>
	</g>
</g>
<rect x="3.5" y="-7.4" class="st1" width="1" height="12"/>
<g>
	<path d="M0,0h1.3l2,6.7l2-6.7h1.3L3.9,8.5H2.8L0,0z"/>
	<path d="M8.3,8.3C7.9,8.1,7.6,7.8,7.4,7.4S7.1,6.5,7.1,6V5c0-0.6,0.1-1,0.3-1.4s0.5-0.7,0.9-0.9s0.8-0.3,1.4-0.3s1,0.1,1.4,0.3
		s0.7,0.5,0.9,0.9s0.3,0.9,0.3,1.4v1c0,0.6-0.1,1-0.3,1.4S11.3,8.1,11,8.3s-0.8,0.3-1.4,0.3S8.6,8.5,8.3,8.3z M10.6,7.1
		c0.2-0.3,0.3-0.6,0.3-1.1V5c0-0.5-0.1-0.8-0.3-1.1s-0.6-0.4-1-0.4s-0.7,0.1-1,0.4S8.3,4.5,8.3,5v1c0,0.5,0.1,0.8,0.3,1.1
		s0.6,0.4,1,0.4S10.4,7.3,10.6,7.1z"/>
	<path d="M15,6.9c0,0.1,0,0.3,0.1,0.3s0.2,0.1,0.3,0.1h0.6v1.1h-0.7c-0.5,0-0.8-0.1-1.1-0.4s-0.4-0.7-0.4-1.2V0H15V6.9z"/>
	<path d="M18.5,6.9c0,0.1,0,0.3,0.1,0.3s0.2,0.1,0.3,0.1h0.6v1.1h-0.7c-0.5,0-0.8-0.1-1.1-0.4s-0.4-0.7-0.4-1.2V0h1.2V6.9z"/>
	<path d="M22.4,8.6c0,0-0.2-0.1-0.6-0.3s-0.7-0.5-0.9-0.9s-0.3-0.9-0.3-1.5V5.2c0-0.6,0.1-1.1,0.3-1.5s0.5-0.8,0.9-1
		s0.8-0.3,1.4-0.3c0.5,0,0.9,0.1,1.3,0.4s0.6,0.6,0.8,1.1s0.3,1.1,0.3,1.7V6h-4.1V5h3c0-0.5-0.2-0.9-0.4-1.2s-0.5-0.4-0.9-0.4
		c-0.5,0-0.8,0.1-1.1,0.4s-0.4,0.7-0.4,1.3v0.8c0,0.5,0.1,0.9,0.4,1.2s0.6,0.4,1.1,0.4c0.2,0,0.5,0,0.7-0.1s0.5-0.2,0.6-0.4l0.8,0.8
		c-0.3,0.3-0.6,0.5-1,0.7s-0.8,0.2-1.1,0.2C22.7,8.6,22.4,8.6,22.4,8.6z"/>
	<path d="M26.3,2.4h1.2l1.9,5.3L28.7,9L26.3,2.4z M31.7,2.4l-2.6,7.5c-0.1,0.3-0.2,0.5-0.4,0.7s-0.3,0.3-0.6,0.3s-0.5,0.1-0.8,0.1
		h-0.2V9.9h0.2c0.2,0,0.4,0,0.5-0.1s0.2-0.2,0.3-0.5l2.3-6.9H31.7z"/>
	<path d="M32.4,2.4h2.7v1.1h-2.7V2.4z M33.4,8.1C33.1,7.9,33,7.5,33,6.9V0.7h1.2v6.3c0,0.1,0,0.3,0.1,0.3s0.1,0.1,0.3,0.1h0.6v1.1
		h-0.7C34,8.5,33.6,8.4,33.4,8.1z"/>
	<path d="M37.1,8.1c-0.4-0.3-0.6-0.8-0.6-1.4c0-0.6,0.2-1.1,0.5-1.4s0.9-0.5,1.5-0.5h1.7l0.1,1h-1.8c-0.3,0-0.5,0.1-0.7,0.2
		s-0.2,0.4-0.2,0.6c0,0.3,0.1,0.5,0.3,0.7s0.5,0.2,0.9,0.2c0.5,0,0.8,0,1-0.1s0.3-0.3,0.3-0.5l0.1,0.9c-0.1,0.2-0.2,0.3-0.4,0.4
		s-0.3,0.2-0.5,0.2S39,8.6,38.7,8.6C38,8.6,37.4,8.5,37.1,8.1z M40.2,4.7c0-0.4-0.1-0.7-0.3-0.9S39.4,3.4,39,3.4
		c-0.2,0-0.5,0-0.7,0.1s-0.4,0.2-0.6,0.3l-0.9-0.6C37,3,37.3,2.7,37.7,2.6s0.8-0.2,1.3-0.2c0.5,0,0.9,0.1,1.3,0.3s0.6,0.4,0.8,0.8
		s0.3,0.7,0.3,1.2v3.9h-1.1V4.7z"/>
	<path d="M44.4,6.9c0,0.1,0,0.3,0.1,0.3s0.2,0.1,0.3,0.1h0.6v1.1h-0.7c-0.5,0-0.8-0.1-1.1-0.4s-0.4-0.7-0.4-1.2V0h1.2V6.9z"/>
	<path d="M46.7,0h1.2v8.5h-1.2V0z M47.2,6.2l3.1-3.8h1.4l-4.6,5.2L47.2,6.2z M48.6,5l0.8-0.8L52,8.5h-1.3L48.6,5z"/>
</g>
</svg>
